<svg xmlns="http://www.w3.org/2000/svg" width="22" height="18" fill="none"><path fill="#0A412F" d="M22 0v14.063C22 16.239 20.256 18 18.102 18c-2.124 0-3.847-1.712-3.899-3.843L1.408 17.68a1.114 1.114 0 0 1-1.368-.79 1.125 1.125 0 0 1 .783-1.383l11.152-3.069V2.25c0-1.241 1-2.25 2.228-2.25zm-2.228 14.063a1.7 1.7 0 0 0-.489-1.194 1.66 1.66 0 0 0-2.363 0 1.696 1.696 0 0 0 0 2.387 1.66 1.66 0 0 0 2.363 0 1.7 1.7 0 0 0 .49-1.194ZM.527 7.301a1.127 1.127 0 0 1 .787-1.378l1.615-.436.72 2.717c.08.3.387.479.683.398l1.075-.292a.564.564 0 0 0 .394-.69l-.72-2.717 1.614-.436a1.114 1.114 0 0 1 1.365.795l1.44 5.431a1.127 1.127 0 0 1-.786 1.379l-5.381 1.459a1.113 1.113 0 0 1-1.365-.795L.528 7.302Z"/></svg>